# xmcd CD database file
#
# Track frame offsets:
#	187
#	20437
#	45835
#	66050
#
# Disc length: 1216 seconds
#
# Revision: 0
# Processed by: cddbd v1.5PL3 Copyright (c) Steve Scherf et al.
# Submitted via: CDex 1.51
#
DISCID=2504be04
DTITLE=酒井法子 - 涙色
DYEAR=1997
DGENRE=Pop
TTITLE0=涙色
TTITLE1=蝶々
TTITLE2=涙色(オリジナル・カラオケ)
TTITLE3=蝶々(オリジナル・カラオケ)
EXTD=YEAR: 1997
EXTT0=
EXTT1=
EXTT2=
EXTT3=
PLAYORDER=
